<svg width="206" height="176" viewBox="0 0 206 176" fill="none" xmlns="http://www.w3.org/2000/svg">
<path d="M20.5312 143.281C17.4688 143.281 14.7188 142.469 12.2812 140.844C9.84375 139.281 7.78125 137.125 6.09375 134.375C4.40625 131.625 3.15625 128.438 2.34375 124.812C1.59375 121.188 1.3125 117.344 1.5 113.281C1.75 108.969 2.40625 104.531 3.46875 99.9688C4.53125 95.3438 5.96875 90.8438 7.78125 86.4688C9.59375 82.0938 11.6875 77.9375 14.0625 74C16.5 70.0625 19.1562 66.625 22.0312 63.6875C24.9688 60.75 28.0938 58.4375 31.4062 56.75C34.7188 55 38.1875 54.125 41.8125 54.125C44.1875 54.125 46.1875 54.7188 47.8125 55.9062C49.4375 57.0938 50.6875 58.6562 51.5625 60.5938C52.5 62.4688 53.0938 64.5938 53.3438 66.9688C53.5938 69.3438 53.5625 71.7188 53.25 74.0938C53 76.4062 52.4688 78.6562 51.6562 80.8438C50.9062 82.9688 49.9688 84.7188 48.8438 86.0938C47.4062 87.9062 46.0938 88.875 44.9062 89C43.7812 89.0625 42.6875 88.7188 41.625 87.9688C41.1875 87.5938 40.75 87.1562 40.3125 86.6562C39.875 86.2188 39.4062 85.6875 38.9062 85.0625C38.4062 84.375 37.875 83.5312 37.3125 82.5312C38.5 82.0938 39.5938 81.375 40.5938 80.375C41.5938 79.3125 42.4375 78.125 43.125 76.8125C43.875 75.5 44.4375 74.125 44.8125 72.6875C45.25 71.1875 45.5 69.7188 45.5625 68.2812C45.625 67.1562 45.5938 66.0625 45.4688 65C45.3438 63.875 45.0938 62.9062 44.7188 62.0938C44.3438 61.2188 43.8125 60.5312 43.125 60.0312C42.5 59.4688 41.6875 59.1875 40.6875 59.1875C38.1875 59.1875 35.75 60.1562 33.375 62.0938C31 63.9688 28.75 66.5 26.625 69.6875C24.5625 72.8125 22.625 76.4062 20.8125 80.4688C19.0625 84.5312 17.5312 88.7188 16.2188 93.0312C14.9062 97.3438 13.8438 101.594 13.0312 105.781C12.2188 109.969 11.7188 113.781 11.5312 117.219C11.2812 121.531 11.4375 125.031 12 127.719C12.5625 130.406 13.3125 132.5 14.25 134C15.25 135.562 16.3125 136.594 17.4375 137.094C18.5625 137.656 19.5938 137.938 20.5312 137.938C22.2812 137.938 24.25 137.125 26.4375 135.5C28.625 133.875 30.7188 131.656 32.7188 128.844C34.7188 126.094 36.5 122.906 38.0625 119.281C39.6875 115.656 40.8438 111.844 41.5312 107.844C39.9688 107.844 38.375 107.875 36.75 107.938C35.1875 107.938 33.6875 107.969 32.25 108.031C30.8125 108.094 29.5312 108.188 28.4062 108.312C27.2812 108.375 26.4062 108.469 25.7812 108.594C25.3438 108.406 25.0312 108.188 24.8438 107.938C24.7188 107.688 24.5938 107.406 24.4688 107.094C24.3438 106.844 24.2812 106.531 24.2812 106.156C24.2812 105.781 24.3438 105.438 24.4688 105.125C24.5938 104.812 24.75 104.5 24.9375 104.188C25.125 103.812 25.375 103.438 25.6875 103.062C27.6875 102.688 29.6562 102.375 31.5938 102.125C33.5312 101.875 35.5312 101.688 37.5938 101.562C39.7188 101.375 41.9688 101.25 44.3438 101.188C46.7812 101.062 49.5 100.969 52.5 100.906C53.75 100.844 54.5 101 54.75 101.375C55.0625 101.75 54.9688 102.688 54.4688 104.188C54.0938 105.375 53.5938 106.344 52.9688 107.094C52.4062 107.844 51.4375 108.156 50.0625 108.031C49.625 108.031 49.2812 108 49.0312 107.938C48.4688 111.625 47.2812 115.531 45.4688 119.656C43.6562 123.781 41.4375 127.594 38.8125 131.094C36.1875 134.594 33.2812 137.5 30.0938 139.812C26.9688 142.125 23.7812 143.281 20.5312 143.281ZM99.375 54.4062C101.562 54.4062 103.344 55.0312 104.719 56.2812C106.156 57.4688 106.781 59.6562 106.594 62.8438C106.531 63.9062 106.281 65.9062 105.844 68.8438C105.406 71.7188 104.875 75.125 104.25 79.0625C103.625 83 102.906 87.25 102.094 91.8125C101.344 96.3125 100.625 100.719 99.9375 105.031H101.906C102.531 105.031 103.219 105 103.969 104.938C104.719 104.875 105.5 104.781 106.312 104.656C106 105.406 105.656 106.125 105.281 106.812C104.906 107.438 104.531 108 104.156 108.5C103.719 109.062 103.281 109.562 102.844 110C102.281 110.688 101.625 111.312 100.875 111.875C100.125 112.375 99.4062 112.781 98.7188 113.094C98.2812 116.156 97.9062 118.906 97.5938 121.344C97.3438 123.719 97.1875 125.688 97.125 127.25C97 129.625 97.0625 131.844 97.3125 133.906C97.5 135.719 97.875 137.562 98.4375 139.438C99 141.312 99.9062 142.812 101.156 143.938L90.2812 147.5C89.5312 146.438 88.9688 145 88.5938 143.188C88.2812 141.438 88.0625 139.688 87.9375 137.938C87.75 135.875 87.7188 133.75 87.8438 131.562C87.9688 129.375 88.3125 126.531 88.875 123.031C89.4375 119.469 90.0625 115.594 90.75 111.406C89.5 111.031 88.125 110.719 86.625 110.469C85.1875 110.219 83.5625 110.094 81.75 110.094C80.125 110.094 78.4062 110.156 76.5938 110.281C74.8438 110.406 73.0938 110.562 71.3438 110.75C70.5938 113.5 69.8438 116.406 69.0938 119.469C68.2812 122.781 67.5312 125.594 66.8438 127.906C66.2188 130.281 65.5938 132.25 64.9688 133.812C64.4062 135.375 63.8125 136.625 63.1875 137.562C62.625 138.5 62 139.188 61.3125 139.625C60.5625 140 59.625 140.344 58.5 140.656C57.4375 140.969 56.0938 141.281 54.4688 141.594C52.8438 141.906 50.75 142.156 48.1875 142.344C49.125 141.219 49.9375 140.188 50.625 139.25C51.3125 138.312 52 137.156 52.6875 135.781C53.375 134.406 54.1562 132.625 55.0312 130.438C55.8438 128.312 56.9062 125.5 58.2188 122C58.7812 120.562 59.3438 119 59.9062 117.312C60.5312 115.562 61.1875 113.781 61.875 111.969C59.625 112.281 57.7188 112.562 56.1562 112.812C54.5938 113.062 53.6562 113.25 53.3438 113.375C52.8438 113.438 52.4375 113.438 52.125 113.375C51.3125 113.25 50.875 112.844 50.8125 112.156C50.875 111.281 51.1875 110.688 51.75 110.375C52.25 110.062 53.0312 109.688 54.0938 109.25C54.5938 109 55.75 108.562 57.5625 107.938C59.3125 107.25 61.4688 106.531 64.0312 105.781C64.9688 103.156 65.875 100.562 66.75 98C67.6875 95.375 68.5938 92.875 69.4688 90.5C70.3438 88.125 71.1875 85.9062 72 83.8438C72.8125 81.7188 73.5625 79.9062 74.25 78.4062C75.3125 76.0938 76.6562 73.5625 78.2812 70.8125C79.9688 68 81.875 65.375 84 62.9375C86.1875 60.5 88.5625 58.4688 91.125 56.8438C93.75 55.2188 96.5 54.4062 99.375 54.4062ZM98.3438 73.9062C99.0312 71.0938 99.5 68.7812 99.75 66.9688C100 65.1562 100.094 63.75 100.031 62.75C99.9688 61.6875 99.75 60.9688 99.375 60.5938C99.0625 60.1562 98.6562 59.9375 98.1562 59.9375C97.3438 59.9375 96.3438 60.25 95.1562 60.875C93.9688 61.5 92.7188 62.4062 91.4062 63.5938C90.0938 64.7188 88.7812 66.1562 87.4688 67.9062C86.2188 69.5938 85.0938 71.5312 84.0938 73.7188C82.6562 76.9688 81.0312 80.9688 79.2188 85.7188C77.4062 90.4062 75.4375 96.4062 73.3125 103.719C74.5625 103.531 75.7812 103.375 76.9688 103.25C78.2188 103.125 79.4375 103.062 80.625 103.062C82.75 103.062 84.7812 103.156 86.7188 103.344C88.6562 103.469 90.4375 103.625 92.0625 103.812C92.625 100.812 93.1875 97.875 93.75 95C94.375 92.0625 94.9688 89.2812 95.5312 86.6562C96.0938 84.0312 96.5938 81.625 97.0312 79.4375C97.5312 77.25 97.9688 75.4062 98.3438 73.9062ZM131.438 143.281C128.375 143.281 125.625 142.469 123.188 140.844C120.75 139.281 118.688 137.125 117 134.375C115.312 131.625 114.062 128.438 113.25 124.812C112.5 121.188 112.219 117.344 112.406 113.281C112.656 108.969 113.312 104.531 114.375 99.9688C115.438 95.3438 116.875 90.8438 118.688 86.4688C120.5 82.0938 122.594 77.9375 124.969 74C127.406 70.0625 130.062 66.625 132.938 63.6875C135.875 60.75 139 58.4375 142.312 56.75C145.625 55 149.094 54.125 152.719 54.125C155.094 54.125 157.094 54.7188 158.719 55.9062C160.344 57.0938 161.594 58.6562 162.469 60.5938C163.406 62.4688 164 64.5938 164.25 66.9688C164.5 69.3438 164.469 71.7188 164.156 74.0938C163.906 76.4062 163.375 78.6562 162.562 80.8438C161.812 82.9688 160.875 84.7188 159.75 86.0938C158.312 87.9062 157 88.875 155.812 89C154.688 89.0625 153.594 88.7188 152.531 87.9688C152.094 87.5938 151.656 87.1562 151.219 86.6562C150.781 86.2188 150.312 85.6875 149.812 85.0625C149.312 84.375 148.781 83.5312 148.219 82.5312C149.406 82.0938 150.5 81.375 151.5 80.375C152.5 79.3125 153.344 78.125 154.031 76.8125C154.781 75.5 155.344 74.125 155.719 72.6875C156.156 71.1875 156.406 69.7188 156.469 68.2812C156.531 67.1562 156.5 66.0625 156.375 65C156.25 63.875 156 62.9062 155.625 62.0938C155.25 61.2188 154.719 60.5312 154.031 60.0312C153.406 59.4688 152.594 59.1875 151.594 59.1875C149.094 59.1875 146.656 60.1562 144.281 62.0938C141.906 63.9688 139.656 66.5 137.531 69.6875C135.469 72.8125 133.531 76.4062 131.719 80.4688C129.969 84.5312 128.438 88.7188 127.125 93.0312C125.812 97.3438 124.75 101.594 123.938 105.781C123.125 109.969 122.625 113.781 122.438 117.219C122.188 121.531 122.344 125.031 122.906 127.719C123.469 130.406 124.219 132.5 125.156 134C126.156 135.562 127.219 136.594 128.344 137.094C129.469 137.656 130.5 137.938 131.438 137.938C133.188 137.938 135.156 137.125 137.344 135.5C139.531 133.875 141.625 131.656 143.625 128.844C145.625 126.094 147.406 122.906 148.969 119.281C150.594 115.656 151.75 111.844 152.438 107.844C150.875 107.844 149.281 107.875 147.656 107.938C146.094 107.938 144.594 107.969 143.156 108.031C141.719 108.094 140.438 108.188 139.312 108.312C138.188 108.375 137.312 108.469 136.688 108.594C136.25 108.406 135.938 108.188 135.75 107.938C135.625 107.688 135.5 107.406 135.375 107.094C135.25 106.844 135.188 106.531 135.188 106.156C135.188 105.781 135.25 105.438 135.375 105.125C135.5 104.812 135.656 104.5 135.844 104.188C136.031 103.812 136.281 103.438 136.594 103.062C138.594 102.688 140.562 102.375 142.5 102.125C144.438 101.875 146.438 101.688 148.5 101.562C150.625 101.375 152.875 101.25 155.25 101.188C157.688 101.062 160.406 100.969 163.406 100.906C164.656 100.844 165.406 101 165.656 101.375C165.969 101.75 165.875 102.688 165.375 104.188C165 105.375 164.5 106.344 163.875 107.094C163.312 107.844 162.344 108.156 160.969 108.031C160.531 108.031 160.188 108 159.938 107.938C159.375 111.625 158.188 115.531 156.375 119.656C154.562 123.781 152.344 127.594 149.719 131.094C147.094 134.594 144.188 137.5 141 139.812C137.875 142.125 134.688 143.281 131.438 143.281Z" fill="black"/>
<path d="M22.0312 43.2969C20 43.7656 17.8125 44 15.4688 44C6.71875 44 2.34375 39.7422 2.34375 31.2266C2.34375 23.3359 6.71875 19.3906 15.4688 19.3906C17.8125 19.3906 20 19.625 22.0312 20.0938V23.6094C20 23.1406 17.7344 22.9062 15.2344 22.9062C9.53125 22.9062 6.67969 25.6797 6.67969 31.2266C6.67969 37.3984 9.53125 40.4844 15.2344 40.4844C17.7344 40.4844 20 40.25 22.0312 39.7812V43.2969ZM26.3906 36.5703C26.3906 31.5234 29.7188 29 36.375 29C38.5156 29 40.6562 29.1562 42.7969 29.4688V27.1484C42.7969 24.3203 40.5859 22.9062 36.1641 22.9062C33.6328 22.9062 31.0391 23.2969 28.3828 24.0781V20.5625C31.0391 19.7812 33.6328 19.3906 36.1641 19.3906C43.4766 19.3906 47.1328 21.9375 47.1328 27.0312V44H44.6953L43.1953 41.5625C40.7422 43.1875 38.0703 44 35.1797 44C29.3203 44 26.3906 41.5234 26.3906 36.5703ZM36.375 32.5156C32.6094 32.5156 30.7266 33.8438 30.7266 36.5C30.7266 39.1562 32.2109 40.4844 35.1797 40.4844C38.1797 40.4844 40.7188 39.6875 42.7969 38.0938V32.9844C40.6562 32.6719 38.5156 32.5156 36.375 32.5156ZM54.1875 44V19.3906H57.1172L57.8906 22.5312C60.0469 20.4375 62.6406 19.3906 65.6719 19.3906V23C62.7344 23 60.3516 24.0391 58.5234 26.1172V44H54.1875ZM69.7969 42.8281V39.0781C72.6875 40.0156 75.6094 40.4844 78.5625 40.4844C82.4844 40.4844 84.4453 39.3125 84.4453 36.9688C84.4453 34.7812 83.0781 33.6875 80.3438 33.6875H76.8281C71.5156 33.6875 68.8594 31.2656 68.8594 26.4219C68.8594 21.7344 72.2734 19.3906 79.1016 19.3906C82.0391 19.3906 84.9531 19.7812 87.8438 20.5625V24.3125C84.9531 23.375 82.0391 22.9062 79.1016 22.9062C75.0078 22.9062 72.9609 24.0781 72.9609 26.4219C72.9609 28.6094 74.25 29.7031 76.8281 29.7031H80.3438C85.9688 29.7031 88.7812 32.125 88.7812 36.9688C88.7812 41.6562 85.375 44 78.5625 44C75.6094 44 72.6875 43.6094 69.7969 42.8281Z" fill="black"/>
<rect x="112.642" y="172.5" width="105" height="3" transform="rotate(-30 112.642 172.5)" fill="#274690"/>
<rect x="92" y="157" width="105" height="3" fill="#B80C09"/>
</svg>
